<mxfile host="app.diagrams.net" agent="Mozilla/5.0 (Windows NT 10.0; Win64; x64) AppleWebKit/537.36 (KHTML, like Gecko) Chrome/131.0.0.0 Safari/537.36" version="24.9.0">
  <diagram name="Page-1" id="HasAcTS15P0ZetfU08zc">
    <mxGraphModel dx="1430" dy="781" grid="1" gridSize="10" guides="1" tooltips="1" connect="1" arrows="1" fold="1" page="1" pageScale="1" pageWidth="827" pageHeight="1169" math="0" shadow="0">
      <root>
        <mxCell id="0" />
        <mxCell id="1" parent="0" />
        <mxCell id="nKlbAJsoChxrk7yMtcG--8" value="" style="rounded=0;whiteSpace=wrap;html=1;" parent="1" vertex="1">
          <mxGeometry x="40" y="545" width="200" height="110" as="geometry" />
        </mxCell>
        <mxCell id="nKlbAJsoChxrk7yMtcG--9" value="" style="rounded=0;whiteSpace=wrap;html=1;" parent="1" vertex="1">
          <mxGeometry x="40" y="545" width="200" height="50" as="geometry" />
        </mxCell>
        <mxCell id="nKlbAJsoChxrk7yMtcG--12" value="" style="rounded=0;whiteSpace=wrap;html=1;" parent="1" vertex="1">
          <mxGeometry x="40" y="595" width="200" height="30" as="geometry" />
        </mxCell>
        <mxCell id="nKlbAJsoChxrk7yMtcG--20" value="" style="rounded=0;whiteSpace=wrap;html=1;" parent="1" vertex="1">
          <mxGeometry x="40" y="625" width="200" height="30" as="geometry" />
        </mxCell>
        <mxCell id="nKlbAJsoChxrk7yMtcG--13" value="" style="endArrow=none;html=1;rounded=0;exitX=0.21;exitY=0.99;exitDx=0;exitDy=0;entryX=1;entryY=0;entryDx=0;entryDy=0;exitPerimeter=0;" parent="1" source="nKlbAJsoChxrk7yMtcG--8" target="nKlbAJsoChxrk7yMtcG--16" edge="1">
          <mxGeometry width="50" height="50" relative="1" as="geometry">
            <mxPoint x="25" y="645" as="sourcePoint" />
            <mxPoint x="75" y="595" as="targetPoint" />
          </mxGeometry>
        </mxCell>
        <mxCell id="nKlbAJsoChxrk7yMtcG--14" value="" style="endArrow=none;html=1;rounded=0;entryX=0.25;entryY=0;entryDx=0;entryDy=0;" parent="1" edge="1">
          <mxGeometry width="50" height="50" relative="1" as="geometry">
            <mxPoint x="170" y="655" as="sourcePoint" />
            <mxPoint x="170" y="595" as="targetPoint" />
          </mxGeometry>
        </mxCell>
        <mxCell id="nKlbAJsoChxrk7yMtcG--15" value="Provincias" style="text;html=1;align=center;verticalAlign=middle;whiteSpace=wrap;rounded=0;" parent="1" vertex="1">
          <mxGeometry x="95" y="555" width="60" height="30" as="geometry" />
        </mxCell>
        <mxCell id="nKlbAJsoChxrk7yMtcG--16" value="&lt;b&gt;PK&lt;/b&gt;" style="text;html=1;align=center;verticalAlign=middle;whiteSpace=wrap;rounded=0;" parent="1" vertex="1">
          <mxGeometry x="30" y="595" width="50" height="30" as="geometry" />
        </mxCell>
        <mxCell id="nKlbAJsoChxrk7yMtcG--17" value="INT" style="text;html=1;align=center;verticalAlign=middle;whiteSpace=wrap;rounded=0;" parent="1" vertex="1">
          <mxGeometry x="180" y="595" width="50" height="30" as="geometry" />
        </mxCell>
        <mxCell id="nKlbAJsoChxrk7yMtcG--21" value="&lt;font style=&quot;font-size: 10px;&quot;&gt;VARCHAR(50)&lt;/font&gt;" style="text;html=1;align=center;verticalAlign=middle;whiteSpace=wrap;rounded=0;" parent="1" vertex="1">
          <mxGeometry x="210" y="625" height="30" as="geometry" />
        </mxCell>
        <mxCell id="nKlbAJsoChxrk7yMtcG--24" value="&lt;b&gt;&lt;u&gt;id_provincia&lt;/u&gt;&lt;/b&gt;" style="text;html=1;align=center;verticalAlign=middle;whiteSpace=wrap;rounded=0;" parent="1" vertex="1">
          <mxGeometry x="90" y="595" width="60" height="30" as="geometry" />
        </mxCell>
        <mxCell id="nKlbAJsoChxrk7yMtcG--25" value="nombre" style="text;html=1;align=center;verticalAlign=middle;whiteSpace=wrap;rounded=0;" parent="1" vertex="1">
          <mxGeometry x="90" y="625" width="60" height="30" as="geometry" />
        </mxCell>
        <mxCell id="nKlbAJsoChxrk7yMtcG--26" value="" style="rounded=0;whiteSpace=wrap;html=1;" parent="1" vertex="1">
          <mxGeometry x="360" y="530" width="200" height="140" as="geometry" />
        </mxCell>
        <mxCell id="nKlbAJsoChxrk7yMtcG--27" value="" style="rounded=0;whiteSpace=wrap;html=1;" parent="1" vertex="1">
          <mxGeometry x="360" y="530" width="200" height="50" as="geometry" />
        </mxCell>
        <mxCell id="nKlbAJsoChxrk7yMtcG--28" value="" style="rounded=0;whiteSpace=wrap;html=1;" parent="1" vertex="1">
          <mxGeometry x="360" y="580" width="200" height="30" as="geometry" />
        </mxCell>
        <mxCell id="nKlbAJsoChxrk7yMtcG--29" value="" style="rounded=0;whiteSpace=wrap;html=1;" parent="1" vertex="1">
          <mxGeometry x="360" y="610" width="200" height="30" as="geometry" />
        </mxCell>
        <mxCell id="nKlbAJsoChxrk7yMtcG--30" value="" style="endArrow=none;html=1;rounded=0;exitX=0.21;exitY=0.99;exitDx=0;exitDy=0;entryX=1;entryY=0;entryDx=0;entryDy=0;exitPerimeter=0;" parent="1" source="nKlbAJsoChxrk7yMtcG--26" target="nKlbAJsoChxrk7yMtcG--33" edge="1">
          <mxGeometry width="50" height="50" relative="1" as="geometry">
            <mxPoint x="345" y="630" as="sourcePoint" />
            <mxPoint x="395" y="580" as="targetPoint" />
          </mxGeometry>
        </mxCell>
        <mxCell id="nKlbAJsoChxrk7yMtcG--31" value="" style="endArrow=none;html=1;rounded=0;entryX=0.25;entryY=0;entryDx=0;entryDy=0;" parent="1" edge="1">
          <mxGeometry width="50" height="50" relative="1" as="geometry">
            <mxPoint x="490" y="670" as="sourcePoint" />
            <mxPoint x="490" y="580" as="targetPoint" />
          </mxGeometry>
        </mxCell>
        <mxCell id="nKlbAJsoChxrk7yMtcG--32" value="Municipios" style="text;html=1;align=center;verticalAlign=middle;whiteSpace=wrap;rounded=0;" parent="1" vertex="1">
          <mxGeometry x="415" y="540" width="60" height="30" as="geometry" />
        </mxCell>
        <mxCell id="nKlbAJsoChxrk7yMtcG--33" value="&lt;b&gt;PK&lt;/b&gt;" style="text;html=1;align=center;verticalAlign=middle;whiteSpace=wrap;rounded=0;" parent="1" vertex="1">
          <mxGeometry x="350" y="580" width="50" height="30" as="geometry" />
        </mxCell>
        <mxCell id="nKlbAJsoChxrk7yMtcG--34" value="INT" style="text;html=1;align=center;verticalAlign=middle;whiteSpace=wrap;rounded=0;" parent="1" vertex="1">
          <mxGeometry x="500" y="580" width="50" height="30" as="geometry" />
        </mxCell>
        <mxCell id="nKlbAJsoChxrk7yMtcG--35" value="&lt;font style=&quot;font-size: 10px;&quot;&gt;VARCHAR(50)&lt;/font&gt;" style="text;html=1;align=center;verticalAlign=middle;whiteSpace=wrap;rounded=0;" parent="1" vertex="1">
          <mxGeometry x="530" y="610" height="30" as="geometry" />
        </mxCell>
        <mxCell id="nKlbAJsoChxrk7yMtcG--36" value="&lt;b&gt;&lt;u&gt;id_municipio&lt;/u&gt;&lt;/b&gt;" style="text;html=1;align=center;verticalAlign=middle;whiteSpace=wrap;rounded=0;" parent="1" vertex="1">
          <mxGeometry x="410" y="580" width="60" height="30" as="geometry" />
        </mxCell>
        <mxCell id="nKlbAJsoChxrk7yMtcG--37" value="nombre" style="text;html=1;align=center;verticalAlign=middle;whiteSpace=wrap;rounded=0;" parent="1" vertex="1">
          <mxGeometry x="410" y="610" width="60" height="30" as="geometry" />
        </mxCell>
        <mxCell id="nKlbAJsoChxrk7yMtcG--62" value="" style="rounded=0;whiteSpace=wrap;html=1;" parent="1" vertex="1">
          <mxGeometry x="995" y="418.95" width="200" height="350" as="geometry" />
        </mxCell>
        <mxCell id="nKlbAJsoChxrk7yMtcG--63" value="" style="rounded=0;whiteSpace=wrap;html=1;" parent="1" vertex="1">
          <mxGeometry x="995" y="418.95" width="200" height="50" as="geometry" />
        </mxCell>
        <mxCell id="nKlbAJsoChxrk7yMtcG--64" value="" style="rounded=0;whiteSpace=wrap;html=1;" parent="1" vertex="1">
          <mxGeometry x="995" y="468.95" width="200" height="30" as="geometry" />
        </mxCell>
        <mxCell id="nKlbAJsoChxrk7yMtcG--65" value="" style="rounded=0;whiteSpace=wrap;html=1;" parent="1" vertex="1">
          <mxGeometry x="995" y="498.95" width="200" height="30" as="geometry" />
        </mxCell>
        <mxCell id="nKlbAJsoChxrk7yMtcG--68" value="Estaciones" style="text;html=1;align=center;verticalAlign=middle;whiteSpace=wrap;rounded=0;" parent="1" vertex="1">
          <mxGeometry x="1050" y="428.95" width="60" height="30" as="geometry" />
        </mxCell>
        <mxCell id="nKlbAJsoChxrk7yMtcG--69" value="&lt;b&gt;PK&lt;/b&gt;" style="text;html=1;align=center;verticalAlign=middle;whiteSpace=wrap;rounded=0;" parent="1" vertex="1">
          <mxGeometry x="985" y="468.95" width="50" height="30" as="geometry" />
        </mxCell>
        <mxCell id="nKlbAJsoChxrk7yMtcG--70" value="INT" style="text;html=1;align=center;verticalAlign=middle;whiteSpace=wrap;rounded=0;" parent="1" vertex="1">
          <mxGeometry x="1135" y="468.95" width="50" height="30" as="geometry" />
        </mxCell>
        <mxCell id="nKlbAJsoChxrk7yMtcG--71" value="&lt;font style=&quot;font-size: 10px;&quot;&gt;VARCHAR(100)&lt;/font&gt;" style="text;html=1;align=center;verticalAlign=middle;whiteSpace=wrap;rounded=0;" parent="1" vertex="1">
          <mxGeometry x="1165" y="498.95" height="30" as="geometry" />
        </mxCell>
        <mxCell id="nKlbAJsoChxrk7yMtcG--72" value="&lt;b&gt;&lt;u&gt;id_estacion&lt;/u&gt;&lt;/b&gt;" style="text;html=1;align=center;verticalAlign=middle;whiteSpace=wrap;rounded=0;" parent="1" vertex="1">
          <mxGeometry x="1045" y="468.95" width="60" height="30" as="geometry" />
        </mxCell>
        <mxCell id="nKlbAJsoChxrk7yMtcG--73" value="direccion" style="text;html=1;align=center;verticalAlign=middle;whiteSpace=wrap;rounded=0;" parent="1" vertex="1">
          <mxGeometry x="1045" y="498.95" width="60" height="30" as="geometry" />
        </mxCell>
        <mxCell id="nKlbAJsoChxrk7yMtcG--75" value="&lt;b&gt;FK&lt;/b&gt;" style="text;html=1;align=center;verticalAlign=middle;whiteSpace=wrap;rounded=0;" parent="1" vertex="1">
          <mxGeometry x="360" y="640" width="50" height="30" as="geometry" />
        </mxCell>
        <mxCell id="nKlbAJsoChxrk7yMtcG--76" value="id_provincia" style="text;html=1;align=center;verticalAlign=middle;whiteSpace=wrap;rounded=0;" parent="1" vertex="1">
          <mxGeometry x="415" y="640" width="60" height="30" as="geometry" />
        </mxCell>
        <mxCell id="nKlbAJsoChxrk7yMtcG--79" value="INT" style="text;html=1;align=center;verticalAlign=middle;whiteSpace=wrap;rounded=0;" parent="1" vertex="1">
          <mxGeometry x="500" y="640" width="50" height="30" as="geometry" />
        </mxCell>
        <mxCell id="nKlbAJsoChxrk7yMtcG--80" value="" style="rounded=0;whiteSpace=wrap;html=1;" parent="1" vertex="1">
          <mxGeometry x="630" y="800" width="200" height="200" as="geometry" />
        </mxCell>
        <mxCell id="nKlbAJsoChxrk7yMtcG--81" value="" style="rounded=0;whiteSpace=wrap;html=1;" parent="1" vertex="1">
          <mxGeometry x="630" y="800" width="200" height="50" as="geometry" />
        </mxCell>
        <mxCell id="nKlbAJsoChxrk7yMtcG--82" value="" style="rounded=0;whiteSpace=wrap;html=1;" parent="1" vertex="1">
          <mxGeometry x="630" y="850" width="200" height="30" as="geometry" />
        </mxCell>
        <mxCell id="nKlbAJsoChxrk7yMtcG--83" value="" style="rounded=0;whiteSpace=wrap;html=1;" parent="1" vertex="1">
          <mxGeometry x="630" y="880" width="200" height="30" as="geometry" />
        </mxCell>
        <mxCell id="nKlbAJsoChxrk7yMtcG--86" value="Precios" style="text;html=1;align=center;verticalAlign=middle;whiteSpace=wrap;rounded=0;" parent="1" vertex="1">
          <mxGeometry x="685" y="810" width="60" height="30" as="geometry" />
        </mxCell>
        <mxCell id="nKlbAJsoChxrk7yMtcG--87" value="&lt;b&gt;PK&lt;/b&gt;" style="text;html=1;align=center;verticalAlign=middle;whiteSpace=wrap;rounded=0;" parent="1" vertex="1">
          <mxGeometry x="620" y="850" width="50" height="30" as="geometry" />
        </mxCell>
        <mxCell id="nKlbAJsoChxrk7yMtcG--88" value="INT" style="text;html=1;align=center;verticalAlign=middle;whiteSpace=wrap;rounded=0;" parent="1" vertex="1">
          <mxGeometry x="770" y="850" width="50" height="30" as="geometry" />
        </mxCell>
        <mxCell id="nKlbAJsoChxrk7yMtcG--90" value="&lt;b&gt;&lt;u&gt;id_precio&lt;/u&gt;&lt;/b&gt;" style="text;html=1;align=center;verticalAlign=middle;whiteSpace=wrap;rounded=0;" parent="1" vertex="1">
          <mxGeometry x="680" y="850" width="60" height="30" as="geometry" />
        </mxCell>
        <mxCell id="nKlbAJsoChxrk7yMtcG--91" value="id_estacion" style="text;html=1;align=center;verticalAlign=middle;whiteSpace=wrap;rounded=0;" parent="1" vertex="1">
          <mxGeometry x="680" y="880" width="60" height="30" as="geometry" />
        </mxCell>
        <mxCell id="nKlbAJsoChxrk7yMtcG--92" value="" style="rounded=0;whiteSpace=wrap;html=1;" parent="1" vertex="1">
          <mxGeometry x="670" y="530" width="200" height="140" as="geometry" />
        </mxCell>
        <mxCell id="nKlbAJsoChxrk7yMtcG--93" value="" style="rounded=0;whiteSpace=wrap;html=1;" parent="1" vertex="1">
          <mxGeometry x="670" y="530" width="200" height="50" as="geometry" />
        </mxCell>
        <mxCell id="nKlbAJsoChxrk7yMtcG--94" value="" style="rounded=0;whiteSpace=wrap;html=1;" parent="1" vertex="1">
          <mxGeometry x="670" y="580" width="200" height="30" as="geometry" />
        </mxCell>
        <mxCell id="nKlbAJsoChxrk7yMtcG--95" value="" style="rounded=0;whiteSpace=wrap;html=1;" parent="1" vertex="1">
          <mxGeometry x="670" y="610" width="200" height="30" as="geometry" />
        </mxCell>
        <mxCell id="nKlbAJsoChxrk7yMtcG--96" value="" style="endArrow=none;html=1;rounded=0;exitX=0.21;exitY=0.99;exitDx=0;exitDy=0;entryX=1;entryY=0;entryDx=0;entryDy=0;exitPerimeter=0;" parent="1" source="nKlbAJsoChxrk7yMtcG--92" target="nKlbAJsoChxrk7yMtcG--99" edge="1">
          <mxGeometry width="50" height="50" relative="1" as="geometry">
            <mxPoint x="655" y="630" as="sourcePoint" />
            <mxPoint x="705" y="580" as="targetPoint" />
          </mxGeometry>
        </mxCell>
        <mxCell id="nKlbAJsoChxrk7yMtcG--97" value="" style="endArrow=none;html=1;rounded=0;entryX=0.25;entryY=0;entryDx=0;entryDy=0;" parent="1" edge="1">
          <mxGeometry width="50" height="50" relative="1" as="geometry">
            <mxPoint x="800" y="670" as="sourcePoint" />
            <mxPoint x="800" y="580" as="targetPoint" />
          </mxGeometry>
        </mxCell>
        <mxCell id="nKlbAJsoChxrk7yMtcG--98" value="Localidades" style="text;html=1;align=center;verticalAlign=middle;whiteSpace=wrap;rounded=0;" parent="1" vertex="1">
          <mxGeometry x="725" y="540" width="60" height="30" as="geometry" />
        </mxCell>
        <mxCell id="nKlbAJsoChxrk7yMtcG--99" value="&lt;b&gt;PK&lt;/b&gt;" style="text;html=1;align=center;verticalAlign=middle;whiteSpace=wrap;rounded=0;" parent="1" vertex="1">
          <mxGeometry x="660" y="580" width="50" height="30" as="geometry" />
        </mxCell>
        <mxCell id="nKlbAJsoChxrk7yMtcG--100" value="INT" style="text;html=1;align=center;verticalAlign=middle;whiteSpace=wrap;rounded=0;" parent="1" vertex="1">
          <mxGeometry x="810" y="580" width="50" height="30" as="geometry" />
        </mxCell>
        <mxCell id="nKlbAJsoChxrk7yMtcG--101" value="&lt;font style=&quot;font-size: 10px;&quot;&gt;VARCHAR(50)&lt;/font&gt;" style="text;html=1;align=center;verticalAlign=middle;whiteSpace=wrap;rounded=0;" parent="1" vertex="1">
          <mxGeometry x="840" y="610" height="30" as="geometry" />
        </mxCell>
        <mxCell id="nKlbAJsoChxrk7yMtcG--102" value="&lt;b&gt;&lt;u&gt;id_localidad&lt;/u&gt;&lt;/b&gt;" style="text;html=1;align=center;verticalAlign=middle;whiteSpace=wrap;rounded=0;" parent="1" vertex="1">
          <mxGeometry x="720" y="580" width="60" height="30" as="geometry" />
        </mxCell>
        <mxCell id="nKlbAJsoChxrk7yMtcG--103" value="nombre" style="text;html=1;align=center;verticalAlign=middle;whiteSpace=wrap;rounded=0;" parent="1" vertex="1">
          <mxGeometry x="720" y="610" width="60" height="30" as="geometry" />
        </mxCell>
        <mxCell id="nKlbAJsoChxrk7yMtcG--104" value="&lt;b&gt;FK&lt;/b&gt;" style="text;html=1;align=center;verticalAlign=middle;whiteSpace=wrap;rounded=0;" parent="1" vertex="1">
          <mxGeometry x="670" y="640" width="50" height="30" as="geometry" />
        </mxCell>
        <mxCell id="nKlbAJsoChxrk7yMtcG--105" value="id_municipio" style="text;html=1;align=center;verticalAlign=middle;whiteSpace=wrap;rounded=0;" parent="1" vertex="1">
          <mxGeometry x="725" y="640" width="60" height="30" as="geometry" />
        </mxCell>
        <mxCell id="nKlbAJsoChxrk7yMtcG--106" value="INT" style="text;html=1;align=center;verticalAlign=middle;whiteSpace=wrap;rounded=0;" parent="1" vertex="1">
          <mxGeometry x="810" y="640" width="50" height="30" as="geometry" />
        </mxCell>
        <mxCell id="nKlbAJsoChxrk7yMtcG--108" value="" style="rounded=0;whiteSpace=wrap;html=1;" parent="1" vertex="1">
          <mxGeometry x="995" y="528.95" width="200" height="30" as="geometry" />
        </mxCell>
        <mxCell id="nKlbAJsoChxrk7yMtcG--110" value="codigo_postal" style="text;html=1;align=center;verticalAlign=middle;whiteSpace=wrap;rounded=0;" parent="1" vertex="1">
          <mxGeometry x="1050" y="528.95" width="60" height="30" as="geometry" />
        </mxCell>
        <mxCell id="nKlbAJsoChxrk7yMtcG--111" value="&lt;font style=&quot;font-size: 10px;&quot;&gt;VARCHAR(5)&lt;/font&gt;" style="text;html=1;align=center;verticalAlign=middle;whiteSpace=wrap;rounded=0;" parent="1" vertex="1">
          <mxGeometry x="1135" y="528.95" width="50" height="30" as="geometry" />
        </mxCell>
        <mxCell id="nKlbAJsoChxrk7yMtcG--112" value="" style="rounded=0;whiteSpace=wrap;html=1;" parent="1" vertex="1">
          <mxGeometry x="995" y="558.95" width="200" height="30" as="geometry" />
        </mxCell>
        <mxCell id="nKlbAJsoChxrk7yMtcG--113" value="" style="rounded=0;whiteSpace=wrap;html=1;" parent="1" vertex="1">
          <mxGeometry x="995" y="588.95" width="200" height="30" as="geometry" />
        </mxCell>
        <mxCell id="nKlbAJsoChxrk7yMtcG--114" value="" style="rounded=0;whiteSpace=wrap;html=1;" parent="1" vertex="1">
          <mxGeometry x="995" y="618.95" width="200" height="30" as="geometry" />
        </mxCell>
        <mxCell id="nKlbAJsoChxrk7yMtcG--115" value="longitud" style="text;html=1;align=center;verticalAlign=middle;whiteSpace=wrap;rounded=0;" parent="1" vertex="1">
          <mxGeometry x="1050" y="558.95" width="60" height="30" as="geometry" />
        </mxCell>
        <mxCell id="nKlbAJsoChxrk7yMtcG--116" value="latitud" style="text;html=1;align=center;verticalAlign=middle;whiteSpace=wrap;rounded=0;" parent="1" vertex="1">
          <mxGeometry x="1050" y="588.95" width="60" height="30" as="geometry" />
        </mxCell>
        <mxCell id="nKlbAJsoChxrk7yMtcG--117" value="tipo" style="text;html=1;align=center;verticalAlign=middle;whiteSpace=wrap;rounded=0;" parent="1" vertex="1">
          <mxGeometry x="1050" y="618.95" width="60" height="30" as="geometry" />
        </mxCell>
        <mxCell id="nKlbAJsoChxrk7yMtcG--119" value="" style="rounded=0;whiteSpace=wrap;html=1;" parent="1" vertex="1">
          <mxGeometry x="995" y="648.95" width="200" height="30" as="geometry" />
        </mxCell>
        <mxCell id="nKlbAJsoChxrk7yMtcG--120" value="" style="rounded=0;whiteSpace=wrap;html=1;" parent="1" vertex="1">
          <mxGeometry x="995" y="678.95" width="200" height="30" as="geometry" />
        </mxCell>
        <mxCell id="nKlbAJsoChxrk7yMtcG--121" value="" style="rounded=0;whiteSpace=wrap;html=1;" parent="1" vertex="1">
          <mxGeometry x="995" y="708.95" width="200" height="30" as="geometry" />
        </mxCell>
        <mxCell id="nKlbAJsoChxrk7yMtcG--122" value="" style="rounded=0;whiteSpace=wrap;html=1;" parent="1" vertex="1">
          <mxGeometry x="995" y="768.95" width="200" height="30" as="geometry" />
        </mxCell>
        <mxCell id="nKlbAJsoChxrk7yMtcG--66" value="" style="endArrow=none;html=1;rounded=0;exitX=0.207;exitY=0.982;exitDx=0;exitDy=0;entryX=1;entryY=0;entryDx=0;entryDy=0;exitPerimeter=0;" parent="1" source="nKlbAJsoChxrk7yMtcG--122" target="nKlbAJsoChxrk7yMtcG--69" edge="1">
          <mxGeometry width="50" height="50" relative="1" as="geometry">
            <mxPoint x="980" y="518.95" as="sourcePoint" />
            <mxPoint x="1030" y="468.95" as="targetPoint" />
          </mxGeometry>
        </mxCell>
        <mxCell id="nKlbAJsoChxrk7yMtcG--67" value="" style="endArrow=none;html=1;rounded=0;exitX=0.091;exitY=0.978;exitDx=0;exitDy=0;entryX=0.25;entryY=0;entryDx=0;entryDy=0;exitPerimeter=0;" parent="1" edge="1">
          <mxGeometry width="50" height="50" relative="1" as="geometry">
            <mxPoint x="1125.46" y="798.2900000000002" as="sourcePoint" />
            <mxPoint x="1125" y="468.95" as="targetPoint" />
          </mxGeometry>
        </mxCell>
        <mxCell id="nKlbAJsoChxrk7yMtcG--123" value="id_localidad" style="text;html=1;align=center;verticalAlign=middle;whiteSpace=wrap;rounded=0;" parent="1" vertex="1">
          <mxGeometry x="1050" y="648.95" width="60" height="30" as="geometry" />
        </mxCell>
        <mxCell id="nKlbAJsoChxrk7yMtcG--124" value="rotulo" style="text;html=1;align=center;verticalAlign=middle;whiteSpace=wrap;rounded=0;" parent="1" vertex="1">
          <mxGeometry x="1050" y="678.95" width="60" height="30" as="geometry" />
        </mxCell>
        <mxCell id="nKlbAJsoChxrk7yMtcG--125" value="tipo_venta" style="text;html=1;align=center;verticalAlign=middle;whiteSpace=wrap;rounded=0;" parent="1" vertex="1">
          <mxGeometry x="1050" y="708.95" width="60" height="30" as="geometry" />
        </mxCell>
        <mxCell id="nKlbAJsoChxrk7yMtcG--126" value="rem" style="text;html=1;align=center;verticalAlign=middle;whiteSpace=wrap;rounded=0;" parent="1" vertex="1">
          <mxGeometry x="1050" y="738.95" width="60" height="30" as="geometry" />
        </mxCell>
        <mxCell id="nKlbAJsoChxrk7yMtcG--127" value="&lt;font style=&quot;font-size: 10px;&quot;&gt;DECIMAL(10,7)&lt;/font&gt;" style="text;html=1;align=center;verticalAlign=middle;whiteSpace=wrap;rounded=0;" parent="1" vertex="1">
          <mxGeometry x="1140" y="558.95" width="50" height="30" as="geometry" />
        </mxCell>
        <mxCell id="nKlbAJsoChxrk7yMtcG--128" value="&lt;font style=&quot;font-size: 10px;&quot;&gt;DECIMAL(10,7)&lt;/font&gt;" style="text;html=1;align=center;verticalAlign=middle;whiteSpace=wrap;rounded=0;" parent="1" vertex="1">
          <mxGeometry x="1140" y="588.95" width="50" height="30" as="geometry" />
        </mxCell>
        <mxCell id="nKlbAJsoChxrk7yMtcG--129" value="&lt;font style=&quot;font-size: 9px;&quot;&gt;ENUM(&#39;terrestre&#39;, &#39;maritima&lt;span style=&quot;background-color: initial;&quot;&gt;&#39;)&lt;/span&gt;&lt;/font&gt;" style="text;html=1;align=center;verticalAlign=middle;whiteSpace=wrap;rounded=0;" parent="1" vertex="1">
          <mxGeometry x="1145" y="618.95" width="50" height="30" as="geometry" />
        </mxCell>
        <mxCell id="nKlbAJsoChxrk7yMtcG--130" value="FK" style="text;html=1;align=center;verticalAlign=middle;whiteSpace=wrap;rounded=0;" parent="1" vertex="1">
          <mxGeometry x="985" y="678.95" width="50" height="30" as="geometry" />
        </mxCell>
        <mxCell id="nKlbAJsoChxrk7yMtcG--131" value="INT" style="text;html=1;align=center;verticalAlign=middle;whiteSpace=wrap;rounded=0;" parent="1" vertex="1">
          <mxGeometry x="1135" y="648.95" width="50" height="30" as="geometry" />
        </mxCell>
        <mxCell id="nKlbAJsoChxrk7yMtcG--132" value="&lt;font style=&quot;font-size: 10px;&quot;&gt;VARCHAR(50&lt;span style=&quot;background-color: initial;&quot;&gt;)&lt;/span&gt;&lt;/font&gt;" style="text;html=1;align=center;verticalAlign=middle;whiteSpace=wrap;rounded=0;" parent="1" vertex="1">
          <mxGeometry x="1140" y="678.95" width="50" height="30" as="geometry" />
        </mxCell>
        <mxCell id="nKlbAJsoChxrk7yMtcG--133" value="&lt;font style=&quot;font-size: 10px;&quot;&gt;VARCHAR(50&lt;span style=&quot;background-color: initial;&quot;&gt;)&lt;/span&gt;&lt;/font&gt;" style="text;html=1;align=center;verticalAlign=middle;whiteSpace=wrap;rounded=0;" parent="1" vertex="1">
          <mxGeometry x="1140" y="708.95" width="50" height="30" as="geometry" />
        </mxCell>
        <mxCell id="nKlbAJsoChxrk7yMtcG--134" value="&lt;font style=&quot;font-size: 10px;&quot;&gt;VARCHAR(50&lt;span style=&quot;background-color: initial;&quot;&gt;)&lt;/span&gt;&lt;/font&gt;" style="text;html=1;align=center;verticalAlign=middle;whiteSpace=wrap;rounded=0;" parent="1" vertex="1">
          <mxGeometry x="1140" y="738.95" width="50" height="30" as="geometry" />
        </mxCell>
        <mxCell id="nKlbAJsoChxrk7yMtcG--135" value="" style="rounded=0;whiteSpace=wrap;html=1;" parent="1" vertex="1">
          <mxGeometry x="360" y="810" width="200" height="110" as="geometry" />
        </mxCell>
        <mxCell id="nKlbAJsoChxrk7yMtcG--136" value="" style="rounded=0;whiteSpace=wrap;html=1;" parent="1" vertex="1">
          <mxGeometry x="360" y="810" width="200" height="50" as="geometry" />
        </mxCell>
        <mxCell id="nKlbAJsoChxrk7yMtcG--137" value="" style="rounded=0;whiteSpace=wrap;html=1;" parent="1" vertex="1">
          <mxGeometry x="360" y="860" width="200" height="30" as="geometry" />
        </mxCell>
        <mxCell id="nKlbAJsoChxrk7yMtcG--138" value="" style="rounded=0;whiteSpace=wrap;html=1;" parent="1" vertex="1">
          <mxGeometry x="360" y="890" width="200" height="30" as="geometry" />
        </mxCell>
        <mxCell id="nKlbAJsoChxrk7yMtcG--139" value="" style="endArrow=none;html=1;rounded=0;exitX=0.21;exitY=0.99;exitDx=0;exitDy=0;entryX=1;entryY=0;entryDx=0;entryDy=0;exitPerimeter=0;" parent="1" source="nKlbAJsoChxrk7yMtcG--135" target="nKlbAJsoChxrk7yMtcG--142" edge="1">
          <mxGeometry width="50" height="50" relative="1" as="geometry">
            <mxPoint x="345" y="910" as="sourcePoint" />
            <mxPoint x="395" y="860" as="targetPoint" />
          </mxGeometry>
        </mxCell>
        <mxCell id="nKlbAJsoChxrk7yMtcG--140" value="" style="endArrow=none;html=1;rounded=0;entryX=0.25;entryY=0;entryDx=0;entryDy=0;" parent="1" edge="1">
          <mxGeometry width="50" height="50" relative="1" as="geometry">
            <mxPoint x="490" y="920" as="sourcePoint" />
            <mxPoint x="490" y="860" as="targetPoint" />
          </mxGeometry>
        </mxCell>
        <mxCell id="nKlbAJsoChxrk7yMtcG--141" value="Combustibles" style="text;html=1;align=center;verticalAlign=middle;whiteSpace=wrap;rounded=0;" parent="1" vertex="1">
          <mxGeometry x="415" y="820" width="60" height="30" as="geometry" />
        </mxCell>
        <mxCell id="nKlbAJsoChxrk7yMtcG--142" value="&lt;b&gt;PK&lt;/b&gt;" style="text;html=1;align=center;verticalAlign=middle;whiteSpace=wrap;rounded=0;" parent="1" vertex="1">
          <mxGeometry x="350" y="860" width="50" height="30" as="geometry" />
        </mxCell>
        <mxCell id="nKlbAJsoChxrk7yMtcG--143" value="INT" style="text;html=1;align=center;verticalAlign=middle;whiteSpace=wrap;rounded=0;" parent="1" vertex="1">
          <mxGeometry x="500" y="860" width="50" height="30" as="geometry" />
        </mxCell>
        <mxCell id="nKlbAJsoChxrk7yMtcG--144" value="&lt;font style=&quot;font-size: 10px;&quot;&gt;VARCHAR(50)&lt;/font&gt;" style="text;html=1;align=center;verticalAlign=middle;whiteSpace=wrap;rounded=0;" parent="1" vertex="1">
          <mxGeometry x="530" y="890" height="30" as="geometry" />
        </mxCell>
        <mxCell id="nKlbAJsoChxrk7yMtcG--145" value="&lt;b&gt;&lt;u&gt;id_combustible&lt;/u&gt;&lt;/b&gt;" style="text;html=1;align=center;verticalAlign=middle;whiteSpace=wrap;rounded=0;" parent="1" vertex="1">
          <mxGeometry x="415" y="860" width="60" height="30" as="geometry" />
        </mxCell>
        <mxCell id="nKlbAJsoChxrk7yMtcG--146" value="nombre" style="text;html=1;align=center;verticalAlign=middle;whiteSpace=wrap;rounded=0;" parent="1" vertex="1">
          <mxGeometry x="410" y="890" width="60" height="30" as="geometry" />
        </mxCell>
        <mxCell id="nKlbAJsoChxrk7yMtcG--159" value="&lt;b&gt;FK&lt;/b&gt;" style="text;html=1;align=center;verticalAlign=middle;whiteSpace=wrap;rounded=0;" parent="1" vertex="1">
          <mxGeometry x="620" y="880" width="50" height="30" as="geometry" />
        </mxCell>
        <mxCell id="nKlbAJsoChxrk7yMtcG--161" value="INT" style="text;html=1;align=center;verticalAlign=middle;whiteSpace=wrap;rounded=0;" parent="1" vertex="1">
          <mxGeometry x="770" y="880" width="50" height="30" as="geometry" />
        </mxCell>
        <mxCell id="nKlbAJsoChxrk7yMtcG--162" value="" style="rounded=0;whiteSpace=wrap;html=1;" parent="1" vertex="1">
          <mxGeometry x="630" y="910" width="200" height="30" as="geometry" />
        </mxCell>
        <mxCell id="nKlbAJsoChxrk7yMtcG--163" value="" style="rounded=0;whiteSpace=wrap;html=1;" parent="1" vertex="1">
          <mxGeometry x="630" y="940" width="200" height="30" as="geometry" />
        </mxCell>
        <mxCell id="nKlbAJsoChxrk7yMtcG--164" value="" style="rounded=0;whiteSpace=wrap;html=1;" parent="1" vertex="1">
          <mxGeometry x="630" y="970" width="200" height="30" as="geometry" />
        </mxCell>
        <mxCell id="nKlbAJsoChxrk7yMtcG--84" value="" style="endArrow=none;html=1;rounded=0;exitX=0.21;exitY=0.99;exitDx=0;exitDy=0;entryX=1;entryY=0;entryDx=0;entryDy=0;exitPerimeter=0;" parent="1" source="nKlbAJsoChxrk7yMtcG--80" target="nKlbAJsoChxrk7yMtcG--87" edge="1">
          <mxGeometry width="50" height="50" relative="1" as="geometry">
            <mxPoint x="615" y="900" as="sourcePoint" />
            <mxPoint x="665" y="850" as="targetPoint" />
          </mxGeometry>
        </mxCell>
        <mxCell id="nKlbAJsoChxrk7yMtcG--85" value="" style="endArrow=none;html=1;rounded=0;entryX=0.25;entryY=0;entryDx=0;entryDy=0;" parent="1" edge="1">
          <mxGeometry width="50" height="50" relative="1" as="geometry">
            <mxPoint x="760" y="1000" as="sourcePoint" />
            <mxPoint x="760" y="850" as="targetPoint" />
          </mxGeometry>
        </mxCell>
        <mxCell id="nKlbAJsoChxrk7yMtcG--166" value="&lt;b&gt;FK&lt;/b&gt;" style="text;html=1;align=center;verticalAlign=middle;whiteSpace=wrap;rounded=0;" parent="1" vertex="1">
          <mxGeometry x="620" y="910" width="50" height="30" as="geometry" />
        </mxCell>
        <mxCell id="nKlbAJsoChxrk7yMtcG--167" value="id_combustible" style="text;html=1;align=center;verticalAlign=middle;whiteSpace=wrap;rounded=0;" parent="1" vertex="1">
          <mxGeometry x="685" y="910" width="60" height="30" as="geometry" />
        </mxCell>
        <mxCell id="nKlbAJsoChxrk7yMtcG--168" value="INT" style="text;html=1;align=center;verticalAlign=middle;whiteSpace=wrap;rounded=0;" parent="1" vertex="1">
          <mxGeometry x="770" y="910" width="50" height="30" as="geometry" />
        </mxCell>
        <mxCell id="nKlbAJsoChxrk7yMtcG--169" value="&lt;font style=&quot;font-size: 11px;&quot;&gt;fecha_toma_datos&lt;/font&gt;" style="text;html=1;align=center;verticalAlign=middle;whiteSpace=wrap;rounded=0;" parent="1" vertex="1">
          <mxGeometry x="690" y="940" width="55" height="30" as="geometry" />
        </mxCell>
        <mxCell id="nKlbAJsoChxrk7yMtcG--170" value="&lt;font style=&quot;font-size: 10px;&quot;&gt;VARCHAR(12)&lt;/font&gt;" style="text;html=1;align=center;verticalAlign=middle;whiteSpace=wrap;rounded=0;" parent="1" vertex="1">
          <mxGeometry x="770" y="940" width="50" height="30" as="geometry" />
        </mxCell>
        <mxCell id="nKlbAJsoChxrk7yMtcG--171" value="precio" style="text;html=1;align=center;verticalAlign=middle;whiteSpace=wrap;rounded=0;" parent="1" vertex="1">
          <mxGeometry x="685" y="970" width="60" height="30" as="geometry" />
        </mxCell>
        <mxCell id="nKlbAJsoChxrk7yMtcG--172" value="&lt;font style=&quot;font-size: 10px;&quot;&gt;DECIMAL(5,2)&lt;/font&gt;" style="text;html=1;align=center;verticalAlign=middle;whiteSpace=wrap;rounded=0;" parent="1" vertex="1">
          <mxGeometry x="770" y="970" width="50" height="30" as="geometry" />
        </mxCell>
        <mxCell id="nKlbAJsoChxrk7yMtcG--173" value="" style="rounded=0;whiteSpace=wrap;html=1;" parent="1" vertex="1">
          <mxGeometry x="1330" y="528.95" width="200" height="170" as="geometry" />
        </mxCell>
        <mxCell id="nKlbAJsoChxrk7yMtcG--174" value="" style="rounded=0;whiteSpace=wrap;html=1;" parent="1" vertex="1">
          <mxGeometry x="1330" y="528.95" width="200" height="50" as="geometry" />
        </mxCell>
        <mxCell id="nKlbAJsoChxrk7yMtcG--175" value="" style="rounded=0;whiteSpace=wrap;html=1;" parent="1" vertex="1">
          <mxGeometry x="1330" y="578.95" width="200" height="30" as="geometry" />
        </mxCell>
        <mxCell id="nKlbAJsoChxrk7yMtcG--176" value="" style="rounded=0;whiteSpace=wrap;html=1;" parent="1" vertex="1">
          <mxGeometry x="1330" y="608.95" width="200" height="30" as="geometry" />
        </mxCell>
        <mxCell id="nKlbAJsoChxrk7yMtcG--177" value="Horarios" style="text;html=1;align=center;verticalAlign=middle;whiteSpace=wrap;rounded=0;" parent="1" vertex="1">
          <mxGeometry x="1385" y="538.95" width="60" height="30" as="geometry" />
        </mxCell>
        <mxCell id="nKlbAJsoChxrk7yMtcG--179" value="INT" style="text;html=1;align=center;verticalAlign=middle;whiteSpace=wrap;rounded=0;" parent="1" vertex="1">
          <mxGeometry x="1470" y="578.95" width="50" height="30" as="geometry" />
        </mxCell>
        <mxCell id="nKlbAJsoChxrk7yMtcG--180" value="&lt;b&gt;&lt;u&gt;id_horario&lt;/u&gt;&lt;/b&gt;" style="text;html=1;align=center;verticalAlign=middle;whiteSpace=wrap;rounded=0;" parent="1" vertex="1">
          <mxGeometry x="1380" y="578.95" width="60" height="30" as="geometry" />
        </mxCell>
        <mxCell id="nKlbAJsoChxrk7yMtcG--181" value="id_estacion" style="text;html=1;align=center;verticalAlign=middle;whiteSpace=wrap;rounded=0;" parent="1" vertex="1">
          <mxGeometry x="1380" y="608.95" width="60" height="30" as="geometry" />
        </mxCell>
        <mxCell id="nKlbAJsoChxrk7yMtcG--183" value="INT" style="text;html=1;align=center;verticalAlign=middle;whiteSpace=wrap;rounded=0;" parent="1" vertex="1">
          <mxGeometry x="1470" y="608.95" width="50" height="30" as="geometry" />
        </mxCell>
        <mxCell id="nKlbAJsoChxrk7yMtcG--184" value="" style="rounded=0;whiteSpace=wrap;html=1;" parent="1" vertex="1">
          <mxGeometry x="1330" y="638.95" width="200" height="30" as="geometry" />
        </mxCell>
        <mxCell id="nKlbAJsoChxrk7yMtcG--185" value="" style="rounded=0;whiteSpace=wrap;html=1;" parent="1" vertex="1">
          <mxGeometry x="1330" y="668.95" width="200" height="30" as="geometry" />
        </mxCell>
        <mxCell id="nKlbAJsoChxrk7yMtcG--187" value="" style="endArrow=none;html=1;rounded=0;exitX=0.21;exitY=0.99;exitDx=0;exitDy=0;entryX=1;entryY=0;entryDx=0;entryDy=0;exitPerimeter=0;" parent="1" source="nKlbAJsoChxrk7yMtcG--173" edge="1">
          <mxGeometry width="50" height="50" relative="1" as="geometry">
            <mxPoint x="1315" y="628.95" as="sourcePoint" />
            <mxPoint x="1370" y="578.95" as="targetPoint" />
          </mxGeometry>
        </mxCell>
        <mxCell id="nKlbAJsoChxrk7yMtcG--188" value="" style="endArrow=none;html=1;rounded=0;entryX=0.25;entryY=0;entryDx=0;entryDy=0;" parent="1" edge="1">
          <mxGeometry width="50" height="50" relative="1" as="geometry">
            <mxPoint x="1460" y="698.95" as="sourcePoint" />
            <mxPoint x="1460" y="578.95" as="targetPoint" />
          </mxGeometry>
        </mxCell>
        <mxCell id="nKlbAJsoChxrk7yMtcG--190" value="horario" style="text;html=1;align=center;verticalAlign=middle;whiteSpace=wrap;rounded=0;" parent="1" vertex="1">
          <mxGeometry x="1385" y="638.95" width="60" height="30" as="geometry" />
        </mxCell>
        <mxCell id="nKlbAJsoChxrk7yMtcG--191" value="&lt;font style=&quot;font-size: 10px;&quot;&gt;VARCHAR(100)&lt;/font&gt;" style="text;html=1;align=center;verticalAlign=middle;whiteSpace=wrap;rounded=0;" parent="1" vertex="1">
          <mxGeometry x="1470" y="638.95" width="50" height="30" as="geometry" />
        </mxCell>
        <mxCell id="nKlbAJsoChxrk7yMtcG--192" value="tipo_servicio" style="text;html=1;align=center;verticalAlign=middle;whiteSpace=wrap;rounded=0;" parent="1" vertex="1">
          <mxGeometry x="1385" y="668.95" width="60" height="30" as="geometry" />
        </mxCell>
        <mxCell id="nKlbAJsoChxrk7yMtcG--193" value="&lt;font style=&quot;font-size: 10px;&quot;&gt;VARCHAR(50)&lt;/font&gt;" style="text;html=1;align=center;verticalAlign=middle;whiteSpace=wrap;rounded=0;" parent="1" vertex="1">
          <mxGeometry x="1470" y="668.95" width="50" height="30" as="geometry" />
        </mxCell>
        <mxCell id="nKlbAJsoChxrk7yMtcG--222" value="" style="rounded=0;whiteSpace=wrap;html=1;" parent="1" vertex="1">
          <mxGeometry x="1310" y="880" width="200" height="110" as="geometry" />
        </mxCell>
        <mxCell id="nKlbAJsoChxrk7yMtcG--223" value="" style="rounded=0;whiteSpace=wrap;html=1;" parent="1" vertex="1">
          <mxGeometry x="1310" y="880" width="200" height="50" as="geometry" />
        </mxCell>
        <mxCell id="nKlbAJsoChxrk7yMtcG--224" value="" style="rounded=0;whiteSpace=wrap;html=1;" parent="1" vertex="1">
          <mxGeometry x="1310" y="930" width="200" height="30" as="geometry" />
        </mxCell>
        <mxCell id="nKlbAJsoChxrk7yMtcG--225" value="" style="rounded=0;whiteSpace=wrap;html=1;" parent="1" vertex="1">
          <mxGeometry x="1310" y="960" width="200" height="30" as="geometry" />
        </mxCell>
        <mxCell id="nKlbAJsoChxrk7yMtcG--226" value="" style="endArrow=none;html=1;rounded=0;exitX=0.21;exitY=0.99;exitDx=0;exitDy=0;entryX=1;entryY=0;entryDx=0;entryDy=0;exitPerimeter=0;" parent="1" source="nKlbAJsoChxrk7yMtcG--222" edge="1">
          <mxGeometry width="50" height="50" relative="1" as="geometry">
            <mxPoint x="1295" y="980" as="sourcePoint" />
            <mxPoint x="1350.0000000000002" y="930" as="targetPoint" />
          </mxGeometry>
        </mxCell>
        <mxCell id="nKlbAJsoChxrk7yMtcG--227" value="" style="endArrow=none;html=1;rounded=0;entryX=0.25;entryY=0;entryDx=0;entryDy=0;" parent="1" edge="1">
          <mxGeometry width="50" height="50" relative="1" as="geometry">
            <mxPoint x="1440" y="990" as="sourcePoint" />
            <mxPoint x="1440" y="930" as="targetPoint" />
          </mxGeometry>
        </mxCell>
        <mxCell id="nKlbAJsoChxrk7yMtcG--228" value="Tipo_Estaciones" style="text;html=1;align=center;verticalAlign=middle;whiteSpace=wrap;rounded=0;" parent="1" vertex="1">
          <mxGeometry x="1365" y="890" width="60" height="30" as="geometry" />
        </mxCell>
        <mxCell id="nKlbAJsoChxrk7yMtcG--229" value="&lt;b&gt;PK&lt;/b&gt;" style="text;html=1;align=center;verticalAlign=middle;whiteSpace=wrap;rounded=0;" parent="1" vertex="1">
          <mxGeometry x="1310" y="930" width="50" height="30" as="geometry" />
        </mxCell>
        <mxCell id="nKlbAJsoChxrk7yMtcG--230" value="INT" style="text;html=1;align=center;verticalAlign=middle;whiteSpace=wrap;rounded=0;" parent="1" vertex="1">
          <mxGeometry x="1450" y="930" width="50" height="30" as="geometry" />
        </mxCell>
        <mxCell id="nKlbAJsoChxrk7yMtcG--231" value="&lt;font style=&quot;font-size: 10px;&quot;&gt;VARCHAR(50)&lt;/font&gt;" style="text;html=1;align=center;verticalAlign=middle;whiteSpace=wrap;rounded=0;" parent="1" vertex="1">
          <mxGeometry x="1475" y="960" height="30" as="geometry" />
        </mxCell>
        <mxCell id="nKlbAJsoChxrk7yMtcG--232" value="&lt;b&gt;&lt;u&gt;&lt;font style=&quot;font-size: 10px;&quot;&gt;id_tipo_estacion&lt;/font&gt;&lt;/u&gt;&lt;/b&gt;" style="text;html=1;align=center;verticalAlign=middle;whiteSpace=wrap;rounded=0;" parent="1" vertex="1">
          <mxGeometry x="1365" y="930" width="60" height="30" as="geometry" />
        </mxCell>
        <mxCell id="nKlbAJsoChxrk7yMtcG--233" value="descripcion" style="text;html=1;align=center;verticalAlign=middle;whiteSpace=wrap;rounded=0;" parent="1" vertex="1">
          <mxGeometry x="1360" y="960" width="60" height="30" as="geometry" />
        </mxCell>
        <mxCell id="nKlbAJsoChxrk7yMtcG--234" style="edgeStyle=orthogonalEdgeStyle;rounded=0;orthogonalLoop=1;jettySize=auto;html=1;exitX=0;exitY=0;exitDx=0;exitDy=0;" parent="1" source="nKlbAJsoChxrk7yMtcG--231" target="nKlbAJsoChxrk7yMtcG--231" edge="1">
          <mxGeometry relative="1" as="geometry" />
        </mxCell>
        <mxCell id="nKlbAJsoChxrk7yMtcG--236" value="" style="endArrow=none;html=1;rounded=0;entryX=0.25;entryY=1;entryDx=0;entryDy=0;" parent="1" target="nKlbAJsoChxrk7yMtcG--33" edge="1">
          <mxGeometry width="50" height="50" relative="1" as="geometry">
            <mxPoint x="240" y="610" as="sourcePoint" />
            <mxPoint x="290" y="560" as="targetPoint" />
          </mxGeometry>
        </mxCell>
        <mxCell id="nKlbAJsoChxrk7yMtcG--237" value="1" style="text;html=1;align=center;verticalAlign=middle;whiteSpace=wrap;rounded=0;" parent="1" vertex="1">
          <mxGeometry x="225" y="585" width="60" height="30" as="geometry" />
        </mxCell>
        <mxCell id="nKlbAJsoChxrk7yMtcG--238" value="N" style="text;html=1;align=center;verticalAlign=middle;whiteSpace=wrap;rounded=0;" parent="1" vertex="1">
          <mxGeometry x="310" y="585" width="60" height="30" as="geometry" />
        </mxCell>
        <mxCell id="nKlbAJsoChxrk7yMtcG--240" value="" style="endArrow=none;html=1;rounded=0;entryX=0.2;entryY=0.667;entryDx=0;entryDy=0;entryPerimeter=0;" parent="1" target="nKlbAJsoChxrk7yMtcG--99" edge="1">
          <mxGeometry width="50" height="50" relative="1" as="geometry">
            <mxPoint x="560" y="600" as="sourcePoint" />
            <mxPoint x="610" y="550" as="targetPoint" />
          </mxGeometry>
        </mxCell>
        <mxCell id="nKlbAJsoChxrk7yMtcG--241" value="1" style="text;html=1;align=center;verticalAlign=middle;whiteSpace=wrap;rounded=0;" parent="1" vertex="1">
          <mxGeometry x="540" y="570" width="60" height="30" as="geometry" />
        </mxCell>
        <mxCell id="nKlbAJsoChxrk7yMtcG--243" value="N" style="text;html=1;align=center;verticalAlign=middle;whiteSpace=wrap;rounded=0;" parent="1" vertex="1">
          <mxGeometry x="625" y="570" width="60" height="30" as="geometry" />
        </mxCell>
        <mxCell id="nKlbAJsoChxrk7yMtcG--244" value="" style="endArrow=none;html=1;rounded=0;entryX=0;entryY=0.25;entryDx=0;entryDy=0;exitX=1;exitY=0.5;exitDx=0;exitDy=0;" parent="1" source="nKlbAJsoChxrk7yMtcG--94" target="nKlbAJsoChxrk7yMtcG--113" edge="1">
          <mxGeometry width="50" height="50" relative="1" as="geometry">
            <mxPoint x="870" y="600" as="sourcePoint" />
            <mxPoint x="920" y="550" as="targetPoint" />
            <Array as="points">
              <mxPoint x="870" y="595" />
            </Array>
          </mxGeometry>
        </mxCell>
        <mxCell id="nKlbAJsoChxrk7yMtcG--246" value="N" style="text;html=1;align=center;verticalAlign=middle;whiteSpace=wrap;rounded=0;" parent="1" vertex="1">
          <mxGeometry x="950" y="570" width="60" height="30" as="geometry" />
        </mxCell>
        <mxCell id="nKlbAJsoChxrk7yMtcG--248" value="1" style="text;html=1;align=center;verticalAlign=middle;whiteSpace=wrap;rounded=0;" parent="1" vertex="1">
          <mxGeometry x="855" y="570" width="60" height="30" as="geometry" />
        </mxCell>
        <mxCell id="nKlbAJsoChxrk7yMtcG--249" value="" style="endArrow=none;html=1;rounded=0;entryX=0;entryY=0.75;entryDx=0;entryDy=0;" parent="1" target="nKlbAJsoChxrk7yMtcG--121" edge="1">
          <mxGeometry width="50" height="50" relative="1" as="geometry">
            <mxPoint x="830" y="820" as="sourcePoint" />
            <mxPoint x="880" y="770" as="targetPoint" />
          </mxGeometry>
        </mxCell>
        <mxCell id="nKlbAJsoChxrk7yMtcG--250" value="1" style="text;html=1;align=center;verticalAlign=middle;whiteSpace=wrap;rounded=0;" parent="1" vertex="1">
          <mxGeometry x="810" y="780" width="60" height="30" as="geometry" />
        </mxCell>
        <mxCell id="nKlbAJsoChxrk7yMtcG--251" value="N" style="text;html=1;align=center;verticalAlign=middle;whiteSpace=wrap;rounded=0;" parent="1" vertex="1">
          <mxGeometry x="950" y="708.95" width="60" height="30" as="geometry" />
        </mxCell>
        <mxCell id="nKlbAJsoChxrk7yMtcG--252" value="" style="endArrow=none;html=1;rounded=0;" parent="1" source="nKlbAJsoChxrk7yMtcG--136" edge="1">
          <mxGeometry width="50" height="50" relative="1" as="geometry">
            <mxPoint x="560" y="885" as="sourcePoint" />
            <mxPoint x="630.7106781186548" y="835" as="targetPoint" />
          </mxGeometry>
        </mxCell>
        <mxCell id="nKlbAJsoChxrk7yMtcG--253" value="N" style="text;html=1;align=center;verticalAlign=middle;whiteSpace=wrap;rounded=0;" parent="1" vertex="1">
          <mxGeometry x="590" y="810" width="60" height="30" as="geometry" />
        </mxCell>
        <mxCell id="nKlbAJsoChxrk7yMtcG--254" value="1" style="text;html=1;align=center;verticalAlign=middle;whiteSpace=wrap;rounded=0;" parent="1" vertex="1">
          <mxGeometry x="540" y="810" width="60" height="30" as="geometry" />
        </mxCell>
        <mxCell id="nKlbAJsoChxrk7yMtcG--256" value="" style="endArrow=none;html=1;rounded=0;entryX=0;entryY=0.5;entryDx=0;entryDy=0;exitX=1;exitY=0.75;exitDx=0;exitDy=0;" parent="1" source="nKlbAJsoChxrk7yMtcG--108" target="nKlbAJsoChxrk7yMtcG--174" edge="1">
          <mxGeometry width="50" height="50" relative="1" as="geometry">
            <mxPoint x="1200" y="450" as="sourcePoint" />
            <mxPoint x="1250" y="400" as="targetPoint" />
          </mxGeometry>
        </mxCell>
        <mxCell id="nKlbAJsoChxrk7yMtcG--257" value="N" style="text;html=1;align=center;verticalAlign=middle;whiteSpace=wrap;rounded=0;" parent="1" vertex="1">
          <mxGeometry x="1290" y="528.95" width="60" height="30" as="geometry" />
        </mxCell>
        <mxCell id="nKlbAJsoChxrk7yMtcG--258" value="1" style="text;html=1;align=center;verticalAlign=middle;whiteSpace=wrap;rounded=0;" parent="1" vertex="1">
          <mxGeometry x="1180" y="525" width="60" height="30" as="geometry" />
        </mxCell>
        <mxCell id="nKlbAJsoChxrk7yMtcG--259" value="&lt;b&gt;PK&lt;/b&gt;" style="text;html=1;align=center;verticalAlign=middle;whiteSpace=wrap;rounded=0;" parent="1" vertex="1">
          <mxGeometry x="1330" y="584.5" width="50" height="30" as="geometry" />
        </mxCell>
        <mxCell id="nKlbAJsoChxrk7yMtcG--260" value="FK" style="text;html=1;align=center;verticalAlign=middle;whiteSpace=wrap;rounded=0;" parent="1" vertex="1">
          <mxGeometry x="1330" y="608.95" width="50" height="30" as="geometry" />
        </mxCell>
        <mxCell id="nKlbAJsoChxrk7yMtcG--261" value="" style="endArrow=none;html=1;rounded=0;exitX=0.5;exitY=0;exitDx=0;exitDy=0;entryX=0.964;entryY=1.044;entryDx=0;entryDy=0;entryPerimeter=0;" parent="1" source="nKlbAJsoChxrk7yMtcG--223" edge="1" target="nKlbAJsoChxrk7yMtcG--122">
          <mxGeometry width="50" height="50" relative="1" as="geometry">
            <mxPoint x="1040" y="820" as="sourcePoint" />
            <mxPoint x="1090" y="770" as="targetPoint" />
          </mxGeometry>
        </mxCell>
        <mxCell id="nKlbAJsoChxrk7yMtcG--263" value="1" style="text;html=1;align=center;verticalAlign=middle;whiteSpace=wrap;rounded=0;" parent="1" vertex="1">
          <mxGeometry x="1380" y="850" width="60" height="30" as="geometry" />
        </mxCell>
        <mxCell id="zn-fG6ecrUkKU_iCknUK-1" value="margen" style="text;html=1;align=center;verticalAlign=middle;whiteSpace=wrap;rounded=0;" vertex="1" parent="1">
          <mxGeometry x="1050" y="768.95" width="60" height="30" as="geometry" />
        </mxCell>
        <mxCell id="zn-fG6ecrUkKU_iCknUK-2" value="&lt;font style=&quot;font-size: 10px;&quot;&gt;VARCHAR(5&lt;/font&gt;&lt;span style=&quot;background-color: initial; font-size: 10px;&quot;&gt;)&lt;/span&gt;" style="text;html=1;align=center;verticalAlign=middle;whiteSpace=wrap;rounded=0;" vertex="1" parent="1">
          <mxGeometry x="1135" y="770" width="50" height="30" as="geometry" />
        </mxCell>
        <mxCell id="zn-fG6ecrUkKU_iCknUK-3" value="N" style="text;html=1;align=center;verticalAlign=middle;whiteSpace=wrap;rounded=0;" vertex="1" parent="1">
          <mxGeometry x="1185" y="780" width="60" height="30" as="geometry" />
        </mxCell>
        <mxCell id="zn-fG6ecrUkKU_iCknUK-4" value="FK" style="text;html=1;align=center;verticalAlign=middle;whiteSpace=wrap;rounded=0;" vertex="1" parent="1">
          <mxGeometry x="985" y="648.95" width="50" height="30" as="geometry" />
        </mxCell>
      </root>
    </mxGraphModel>
  </diagram>
</mxfile>
